<mxfile host="app.diagrams.net" agent="Mozilla/5.0 (X11; Linux x86_64) AppleWebKit/537.36 (KHTML, like Gecko) Chrome/124.0.0.0 Safari/537.36" version="27.1.6">
  <diagram name="Page-1" id="bMk7YE4iufzichJusxMn">
    <mxGraphModel dx="2204" dy="832" grid="1" gridSize="10" guides="1" tooltips="1" connect="1" arrows="1" fold="1" page="1" pageScale="1" pageWidth="850" pageHeight="1100" math="0" shadow="0">
      <root>
        <mxCell id="0" />
        <mxCell id="1" parent="0" />
        <mxCell id="E24_1bioBRznkQB1SDZh-1" value="&lt;pre spellcheck=&quot;false&quot; class=&quot;language-plaintext skipProofing&quot;&gt;&lt;code&gt;â€‹We&amp;nbsp;&lt;span class=&quot;hljs-keyword&quot;&gt;are&lt;/span&gt;&amp;nbsp;&lt;span class=&quot;hljs-keyword&quot;&gt;in&lt;/span&gt;&amp;nbsp;the&amp;nbsp;early&amp;nbsp;stages&amp;nbsp;&lt;span class=&quot;hljs-keyword&quot;&gt;of&lt;/span&gt;&amp;nbsp;developing&amp;nbsp;a&amp;nbsp;&lt;span class=&quot;hljs-keyword&quot;&gt;new&lt;/span&gt;&amp;nbsp;product&amp;nbsp;that&amp;nbsp;name&amp;nbsp;&quot;Docgo.ai&quot;,&amp;nbsp;an&amp;nbsp;app&amp;nbsp;that&amp;nbsp;support&amp;nbsp;&lt;span class=&quot;hljs-keyword&quot;&gt;user&lt;/span&gt;&amp;nbsp;can&amp;nbsp;be&amp;nbsp;learning&amp;nbsp;&lt;span class=&quot;hljs-keyword&quot;&gt;language&lt;/span&gt;&amp;nbsp;&lt;span class=&quot;hljs-keyword&quot;&gt;with&lt;/span&gt;&amp;nbsp;AI.&amp;nbsp;&lt;/code&gt;&lt;/pre&gt;&lt;pre spellcheck=&quot;false&quot; class=&quot;language-plaintext skipProofing&quot;&gt;&lt;code&gt;Docgo.ai&amp;nbsp;can&amp;nbsp;help&amp;nbsp;&lt;span class=&quot;hljs-keyword&quot;&gt;user&lt;/span&gt;&amp;nbsp;planing&amp;nbsp;study&amp;nbsp;plan&amp;nbsp;base&amp;nbsp;&lt;span class=&quot;hljs-keyword&quot;&gt;on&lt;/span&gt;&amp;nbsp;&lt;span class=&quot;hljs-keyword&quot;&gt;user&lt;/span&gt;&amp;nbsp;prompt&amp;nbsp;&lt;span class=&quot;hljs-keyword&quot;&gt;or&lt;/span&gt;&amp;nbsp;Document&amp;nbsp;that&amp;nbsp;&lt;span class=&quot;hljs-keyword&quot;&gt;user&lt;/span&gt;&amp;nbsp;provided.&amp;nbsp;&lt;/code&gt;&lt;/pre&gt;&lt;pre spellcheck=&quot;false&quot; class=&quot;language-plaintext skipProofing&quot;&gt;&lt;code&gt;Please&amp;nbsp;generate&amp;nbsp;a&amp;nbsp;list&amp;nbsp;&lt;span class=&quot;hljs-keyword&quot;&gt;of&lt;/span&gt;&amp;nbsp;potential&amp;nbsp;&lt;span class=&quot;hljs-keyword&quot;&gt;user&lt;/span&gt;&amp;nbsp;personas&amp;nbsp;&lt;span class=&quot;hljs-keyword&quot;&gt;in&lt;/span&gt;&amp;nbsp;detail,&amp;nbsp;that&amp;nbsp;we&amp;nbsp;should&amp;nbsp;consider&amp;nbsp;&lt;span class=&quot;hljs-keyword&quot;&gt;in&lt;/span&gt;&amp;nbsp;our&amp;nbsp;design&amp;nbsp;&lt;span class=&quot;hljs-keyword&quot;&gt;and&lt;/span&gt;&amp;nbsp;development&amp;nbsp;process.&lt;/code&gt;&lt;/pre&gt;" style="text;html=1;align=left;verticalAlign=middle;resizable=0;points=[];autosize=1;strokeColor=none;fillColor=none;" vertex="1" parent="1">
          <mxGeometry x="-750" y="420" width="1010" height="100" as="geometry" />
        </mxCell>
      </root>
    </mxGraphModel>
  </diagram>
</mxfile>
